<svg xmlns="http://www.w3.org/2000/svg" viewBox="0 0 388.1 137.8" enable-background="new 0 0 388.1 137.8"><path fill="#868686" d="M221 91c.3 8.8 7.2 12.5 14.9 12.5 5.7 0 9.7-.8 13.4-2.2l1.8 8.5c-4.2 1.7-9.9 3-16.9 3-15.7 0-25-9.6-25-24.5 0-13.4 8.2-26.1 23.7-26.1 15.7 0 20.9 12.9 20.9 23.6 0 2.3-.2 4.1-.4 5.2h-32.4zm21.3-8.6c.1-4.5-1.9-11.8-10-11.8-7.6 0-10.7 6.9-11.2 11.8h21.2zm31.3-43.6v72.9h-12.8v-72.9h12.8zm16.4-.6c2 0 3.7.7 5.1 2.1s2.1 3.1 2.1 5.1c0 1.9-.7 3.6-2.1 5.1-1.4 1.5-3.1 2.2-5.1 2.2-1.9 0-3.6-.7-5.1-2.2-1.4-1.5-2.2-3.2-2.2-5.1 0-2 .7-3.7 2.2-5.1s3.2-2.1 5.1-2.1zm6.5 24.8v48.7h-12.8v-48.7h12.8zm87.8-24.7c-1.6-.3-3.1-.4-4.6-.4-5.8 0-10.5 1.9-14.1 5.8-3.5 3.9-5.3 9.1-5.3 15.6v3.7h-21.2l-8.1 27.4c-1 3.4-1.9 7.2-2.8 10.2h-.3c-.7-3-1.8-6.9-2.9-10.1l-9.4-27.6h-14.4l19 47.3c.6 1.3.7 2 .7 2.5 0 .6-.3 1.4-.9 2.3-1.8 3.5-4.7 6.6-7.2 8.1-2.7 1.9-5.4 3.1-7.7 3.6l3 11c3.3-.4 8.7-2.1 13.8-6.7 6.2-5.3 11-13.9 18.2-33.1l9.4-25.4h10.7v39h12.8v-39h8.3v-9.5h-8.3v-3.5c0-3.7.8-6.4 2.3-8 1.5-1.6 3.8-2.4 6.9-2.4 2.1 0 4 .2 5.8.7v-10.4c-.8-.5-2.1-.8-3.7-1.1zm-348 53.4c-3.6-15-.8-32.5 8.2-52-18.2-6.1-36.1-7.8-42.3-8.3-1.2-.1-2.3.9-2.2 2.2 1 14.1 8.8 88.1 57.6 89-11.2-8.2-18.4-18.6-21.3-30.9zm46.6-91c-.9-1-2.4-1-3.3 0-11 12.7-71.9 88.1-7 122.4.7-6.8 2.3-21.1 5.6-36.7-4.5-10.2-11.7-18.4-20.4-23.5-1.3-.8-.4-2.8 1.1-2.4 9 2.7 16.5 9.4 21.8 15.4 3.9-15.1 9.4-30 17.1-39.5 1-1.2 2.8 0 2.2 1.3-13.2 29.5-14.2 50.9-14.2 87.4 71.5-33.2 8.3-111.4-2.9-124.4zm93.6 37.9c6.7 0 12.2 1.8 16.4 5.3 4.2 3.5 6.4 7.9 6.4 13.1 0 3.4-.9 6.3-2.7 8.9-1.8 2.6-4.3 4.6-7.7 6.1v.6c5.1 1.2 9.1 3.4 11.9 6.9 2.9 3.4 4.3 7.4 4.3 12 0 4.1-1 7.7-3.1 10.9s-5 5.6-8.7 7.2c-3.7 1.6-8 2.4-13 2.4h-30.7v-73.4h26.9zm-3.8 30.4c3.7 0 6.7-.9 8.9-2.7 2.2-1.8 3.3-4.3 3.3-7.5 0-2.8-1-5.1-3-6.7-2-1.7-4.6-2.5-7.9-2.5h-10.2v19.4h8.9zm3.3 31.9c4.8 0 8.4-.9 10.9-2.7 2.5-1.8 3.7-4.5 3.7-8 0-3.1-1.2-5.6-3.6-7.4-2.4-1.8-5.7-2.7-9.8-2.7h-13.3v20.7h12.1z"/></svg>