<svg id="visual" viewBox="0 0 960 540" width="960" height="540" xmlns="http://www.w3.org/2000/svg" xmlns:xlink="http://www.w3.org/1999/xlink" version="1.1"><rect x="0" y="0" width="960" height="540" fill="#00008b"></rect><path d="M0 227L26.7 227.7C53.3 228.3 106.7 229.7 160 233.8C213.3 238 266.7 245 320 240.7C373.3 236.3 426.7 220.7 480 215.7C533.3 210.7 586.7 216.3 640 217.7C693.3 219 746.7 216 800 217.2C853.3 218.3 906.7 223.7 933.3 226.3L960 229L960 0L933.3 0C906.7 0 853.3 0 800 0C746.7 0 693.3 0 640 0C586.7 0 533.3 0 480 0C426.7 0 373.3 0 320 0C266.7 0 213.3 0 160 0C106.7 0 53.3 0 26.7 0L0 0Z" fill="#1e6ce1"></path><path d="M0 163L26.7 165C53.3 167 106.7 171 160 175C213.3 179 266.7 183 320 179.7C373.3 176.3 426.7 165.7 480 163.7C533.3 161.7 586.7 168.3 640 172.3C693.3 176.3 746.7 177.7 800 177.7C853.3 177.7 906.7 176.3 933.3 175.7L960 175L960 0L933.3 0C906.7 0 853.3 0 800 0C746.7 0 693.3 0 640 0C586.7 0 533.3 0 480 0C426.7 0 373.3 0 320 0C266.7 0 213.3 0 160 0C106.7 0 53.3 0 26.7 0L0 0Z" fill="#0059e8"></path><path d="M0 130L26.7 124.7C53.3 119.3 106.7 108.7 160 108.2C213.3 107.7 266.7 117.3 320 119.5C373.3 121.7 426.7 116.3 480 114.2C533.3 112 586.7 113 640 114.7C693.3 116.3 746.7 118.7 800 116.3C853.3 114 906.7 107 933.3 103.5L960 100L960 0L933.3 0C906.7 0 853.3 0 800 0C746.7 0 693.3 0 640 0C586.7 0 533.3 0 480 0C426.7 0 373.3 0 320 0C266.7 0 213.3 0 160 0C106.7 0 53.3 0 26.7 0L0 0Z" fill="#1241eb"></path><path d="M0 70L26.7 71.8C53.3 73.7 106.7 77.3 160 78.7C213.3 80 266.7 79 320 79.2C373.3 79.3 426.7 80.7 480 80C533.3 79.3 586.7 76.7 640 72C693.3 67.3 746.7 60.7 800 61C853.3 61.3 906.7 68.7 933.3 72.3L960 76L960 0L933.3 0C906.7 0 853.3 0 800 0C746.7 0 693.3 0 640 0C586.7 0 533.3 0 480 0C426.7 0 373.3 0 320 0C266.7 0 213.3 0 160 0C106.7 0 53.3 0 26.7 0L0 0Z" fill="#351ae8"></path></svg>