<svg id="visual" viewBox="0 0 900 600" width="900" height="600" xmlns="http://www.w3.org/2000/svg" xmlns:xlink="http://www.w3.org/1999/xlink" version="1.1"><g stroke-width="1" stroke-linejoin="bevel"><path d="M395 274L496 184L373 211Z" fill="#19435d" stroke="#19435d"></path><path d="M395 274L539 294L496 184Z" fill="#0c2435" stroke="#0c2435"></path><path d="M496 184L404 105L373 211Z" fill="#00101c" stroke="#00101c"></path><path d="M580 128L531 129L496 184Z" fill="#19435d" stroke="#19435d"></path><path d="M496 184L531 129L404 105Z" fill="#00101c" stroke="#00101c"></path><path d="M395 274L464 383L539 294Z" fill="#297ea6" stroke="#297ea6"></path><path d="M637 180L580 128L496 184Z" fill="#19435d" stroke="#19435d"></path><path d="M522 0L396 0L404 105Z" fill="#00101c" stroke="#00101c"></path><path d="M404 105L313 103L373 211Z" fill="#112e42" stroke="#112e42"></path><path d="M373 211L266 294L395 274Z" fill="#246688" stroke="#246688"></path><path d="M313 103L268 161L373 211Z" fill="#277297" stroke="#277297"></path><path d="M395 274L313 387L464 383Z" fill="#205a7a" stroke="#205a7a"></path><path d="M233 212L266 294L373 211Z" fill="#15384f" stroke="#15384f"></path><path d="M586 379L629 279L539 294Z" fill="#0c2435" stroke="#0c2435"></path><path d="M539 294L637 180L496 184Z" fill="#15384f" stroke="#15384f"></path><path d="M629 279L637 180L539 294Z" fill="#246688" stroke="#246688"></path><path d="M268 161L233 212L373 211Z" fill="#112e42" stroke="#112e42"></path><path d="M266 294L313 387L395 274Z" fill="#15384f" stroke="#15384f"></path><path d="M313 387L431 436L464 383Z" fill="#1d4e6b" stroke="#1d4e6b"></path><path d="M464 383L586 379L539 294Z" fill="#081a28" stroke="#081a28"></path><path d="M569 465L586 379L464 383Z" fill="#205a7a" stroke="#205a7a"></path><path d="M404 105L396 0L313 103Z" fill="#112e42" stroke="#112e42"></path><path d="M522 0L404 105L531 129Z" fill="#277297" stroke="#277297"></path><path d="M629 279L674 194L637 180Z" fill="#15384f" stroke="#15384f"></path><path d="M637 180L681 106L580 128Z" fill="#00101c" stroke="#00101c"></path><path d="M710 328L674 194L629 279Z" fill="#1d4e6b" stroke="#1d4e6b"></path><path d="M599 0L522 0L580 128Z" fill="#297ea6" stroke="#297ea6"></path><path d="M580 128L522 0L531 129Z" fill="#297ea6" stroke="#297ea6"></path><path d="M313 103L239 86L268 161Z" fill="#00101c" stroke="#00101c"></path><path d="M268 161L239 86L233 212Z" fill="#246688" stroke="#246688"></path><path d="M318 0L239 86L313 103Z" fill="#297ea6" stroke="#297ea6"></path><path d="M396 0L318 0L313 103Z" fill="#112e42" stroke="#112e42"></path><path d="M313 387L423 481L431 436Z" fill="#205a7a" stroke="#205a7a"></path><path d="M488 503L569 465L464 383Z" fill="#00101c" stroke="#00101c"></path><path d="M233 212L197 330L266 294Z" fill="#205a7a" stroke="#205a7a"></path><path d="M266 294L197 330L313 387Z" fill="#081a28" stroke="#081a28"></path><path d="M313 387L290 482L423 481Z" fill="#15384f" stroke="#15384f"></path><path d="M135 202L197 330L233 212Z" fill="#277297" stroke="#277297"></path><path d="M674 194L681 106L637 180Z" fill="#112e42" stroke="#112e42"></path><path d="M681 106L599 0L580 128Z" fill="#00101c" stroke="#00101c"></path><path d="M488 503L464 383L431 436Z" fill="#277297" stroke="#277297"></path><path d="M586 379L686 364L629 279Z" fill="#081a28" stroke="#081a28"></path><path d="M569 465L686 364L586 379Z" fill="#1d4e6b" stroke="#1d4e6b"></path><path d="M674 194L811 163L681 106Z" fill="#0c2435" stroke="#0c2435"></path><path d="M423 481L488 503L431 436Z" fill="#246688" stroke="#246688"></path><path d="M686 364L710 328L629 279Z" fill="#112e42" stroke="#112e42"></path><path d="M184 415L290 482L313 387Z" fill="#205a7a" stroke="#205a7a"></path><path d="M423 481L480 600L488 503Z" fill="#112e42" stroke="#112e42"></path><path d="M239 86L135 202L233 212Z" fill="#1d4e6b" stroke="#1d4e6b"></path><path d="M81 407L184 415L197 330Z" fill="#0c2435" stroke="#0c2435"></path><path d="M197 330L184 415L313 387Z" fill="#277297" stroke="#277297"></path><path d="M239 86L123 92L135 202Z" fill="#00101c" stroke="#00101c"></path><path d="M164 0L123 92L239 86Z" fill="#205a7a" stroke="#205a7a"></path><path d="M811 93L716 0L681 106Z" fill="#205a7a" stroke="#205a7a"></path><path d="M681 106L716 0L599 0Z" fill="#1d4e6b" stroke="#1d4e6b"></path><path d="M318 0L164 0L239 86Z" fill="#00101c" stroke="#00101c"></path><path d="M184 415L165 478L290 482Z" fill="#1d4e6b" stroke="#1d4e6b"></path><path d="M374 600L480 600L423 481Z" fill="#205a7a" stroke="#205a7a"></path><path d="M81 407L165 478L184 415Z" fill="#112e42" stroke="#112e42"></path><path d="M73 306L197 330L135 202Z" fill="#277297" stroke="#277297"></path><path d="M818 403L810 337L710 328Z" fill="#112e42" stroke="#112e42"></path><path d="M569 465L660 527L686 364Z" fill="#205a7a" stroke="#205a7a"></path><path d="M623 600L660 527L569 465Z" fill="#112e42" stroke="#112e42"></path><path d="M623 600L569 465L488 503Z" fill="#1d4e6b" stroke="#1d4e6b"></path><path d="M810 337L811 163L710 328Z" fill="#081a28" stroke="#081a28"></path><path d="M710 328L811 163L674 194Z" fill="#297ea6" stroke="#297ea6"></path><path d="M0 281L73 306L135 202Z" fill="#205a7a" stroke="#205a7a"></path><path d="M374 600L423 481L290 482Z" fill="#1d4e6b" stroke="#1d4e6b"></path><path d="M331 600L374 600L290 482Z" fill="#1d4e6b" stroke="#1d4e6b"></path><path d="M818 403L710 328L686 364Z" fill="#277297" stroke="#277297"></path><path d="M217 600L331 600L290 482Z" fill="#1d4e6b" stroke="#1d4e6b"></path><path d="M811 163L811 93L681 106Z" fill="#246688" stroke="#246688"></path><path d="M73 306L81 407L197 330Z" fill="#277297" stroke="#277297"></path><path d="M660 527L818 403L686 364Z" fill="#081a28" stroke="#081a28"></path><path d="M900 262L900 184L811 163Z" fill="#15384f" stroke="#15384f"></path><path d="M900 91L834 0L811 93Z" fill="#081a28" stroke="#081a28"></path><path d="M480 600L623 600L488 503Z" fill="#277297" stroke="#277297"></path><path d="M660 527L821 511L818 403Z" fill="#0c2435" stroke="#0c2435"></path><path d="M164 0L68 0L123 92Z" fill="#205a7a" stroke="#205a7a"></path><path d="M0 162L0 281L135 202Z" fill="#00101c" stroke="#00101c"></path><path d="M102 525L217 600L165 478Z" fill="#1d4e6b" stroke="#1d4e6b"></path><path d="M165 478L217 600L290 482Z" fill="#297ea6" stroke="#297ea6"></path><path d="M73 306L0 400L81 407Z" fill="#277297" stroke="#277297"></path><path d="M0 162L135 202L123 92Z" fill="#246688" stroke="#246688"></path><path d="M0 60L0 162L123 92Z" fill="#277297" stroke="#277297"></path><path d="M900 91L811 93L811 163Z" fill="#0c2435" stroke="#0c2435"></path><path d="M811 93L834 0L716 0Z" fill="#277297" stroke="#277297"></path><path d="M81 407L102 525L165 478Z" fill="#1d4e6b" stroke="#1d4e6b"></path><path d="M0 506L102 525L81 407Z" fill="#19435d" stroke="#19435d"></path><path d="M623 600L693 600L660 527Z" fill="#0c2435" stroke="#0c2435"></path><path d="M900 262L811 163L810 337Z" fill="#1d4e6b" stroke="#1d4e6b"></path><path d="M900 392L900 262L810 337Z" fill="#15384f" stroke="#15384f"></path><path d="M68 0L0 60L123 92Z" fill="#19435d" stroke="#19435d"></path><path d="M0 281L0 400L73 306Z" fill="#00101c" stroke="#00101c"></path><path d="M693 600L821 511L660 527Z" fill="#1d4e6b" stroke="#1d4e6b"></path><path d="M818 403L900 392L810 337Z" fill="#277297" stroke="#277297"></path><path d="M900 184L900 91L811 163Z" fill="#112e42" stroke="#112e42"></path><path d="M900 513L900 392L818 403Z" fill="#00101c" stroke="#00101c"></path><path d="M68 0L0 0L0 60Z" fill="#081a28" stroke="#081a28"></path><path d="M0 600L103 600L102 525Z" fill="#277297" stroke="#277297"></path><path d="M102 525L103 600L217 600Z" fill="#1d4e6b" stroke="#1d4e6b"></path><path d="M900 91L900 0L834 0Z" fill="#19435d" stroke="#19435d"></path><path d="M0 400L0 506L81 407Z" fill="#15384f" stroke="#15384f"></path><path d="M835 600L900 513L821 511Z" fill="#112e42" stroke="#112e42"></path><path d="M821 511L900 513L818 403Z" fill="#297ea6" stroke="#297ea6"></path><path d="M693 600L835 600L821 511Z" fill="#246688" stroke="#246688"></path><path d="M0 506L0 600L102 525Z" fill="#112e42" stroke="#112e42"></path><path d="M835 600L900 600L900 513Z" fill="#00101c" stroke="#00101c"></path></g></svg>